# xmcd
#
# Track frame offsets: 
#        150
#        13580
#        26312
#        39629
#        52728
#        63264
#        74303
#        87255
#
# Disc length: 1363 seconds
#
# Revision: 0
# Processed by: cddbd v1.5.2PL0 Copyright (c) Steve Scherf et al.
# Submitted via: ExactAudioCopy v0.95b4
#
DISCID=59055108
DTITLE=Jim Reeves - I Guess I'm Crazy
DYEAR=1987
DGENRE=Country
TTITLE0=You'll Never Know
TTITLE1=I Love You Because
TTITLE2=Oh What It Seemed To Be
TTITLE3=I Guess I'm Crazy
TTITLE4=Am I Losing You
TTITLE5=Angels Dont Lie
TTITLE6=Four Walls
TTITLE7=Have I Told You Lately That I Love You
EXTD=
EXTT0=
EXTT1=
EXTT2=
EXTT3=
EXTT4=
EXTT5=
EXTT6=
EXTT7=
PLAYORDER=
